<svg width="500" height="123" viewBox="0 0 500 123" fill="none" xmlns="http://www.w3.org/2000/svg">
<g clip-path="url(#clip0_334_71)">
<path d="M39.666 36.1264C58.831 36.1264 71.0826 47.1641 74.7217 63.1753H65.8662C62.4698 51.0457 53.7364 44.0102 39.666 44.0102C21.1074 44.0103 8.97757 59.0515 8.97754 79.187C8.97754 98.9584 21.1073 114.363 39.3018 114.364C53.9787 114.364 62.3485 107.328 65.8662 95.1987H74.7217C70.9614 111.21 58.4668 122.248 39.3018 122.248C15.8914 122.247 0.00195312 103.932 0.00195312 79.187C0.00198684 54.8061 15.8916 36.1265 39.666 36.1264ZM110.581 60.3852C127.684 60.3853 138.722 72.637 138.722 91.3169C138.722 109.997 126.714 122.247 110.581 122.248C93.4781 122.248 82.4396 109.997 82.4395 91.3169C82.4395 72.6369 94.4484 60.3852 110.581 60.3852ZM297.142 60.3852C311.94 60.3854 322.614 70.8174 322.614 88.5268V91.9233H278.461C278.704 105.751 285.982 115.091 297.627 115.091C306.967 115.091 312.668 109.754 313.881 102.961H322.129C320.552 113.757 310.848 122.247 297.627 122.248C279.796 122.248 269.85 109.997 269.85 91.3169C269.85 73.0008 281.737 60.3852 297.142 60.3852ZM356.613 60.3852C370.684 60.3852 379.66 68.9975 381.479 81.2485H373.231C371.655 73.2429 366.074 67.5424 356.613 67.5424C346.06 67.5426 337.812 77.1251 337.812 91.3169C337.813 105.508 345.818 115.091 356.613 115.091C366.075 115.091 371.655 109.39 373.231 101.384H381.479C379.66 113.635 370.684 122.248 356.613 122.248C339.874 122.247 329.2 109.996 329.2 91.3169C329.2 72.637 341.087 60.3854 356.613 60.3852ZM176.422 60.3852C188.066 60.3852 197.892 66.8142 197.892 84.645V120.914H189.644V85.7368C189.644 72.394 183.578 67.5424 174.724 67.5424C165.02 67.5425 157.014 75.4269 157.014 90.104V120.914H148.766V61.7202H156.65V71.4233H157.014C160.531 64.0242 167.81 60.3852 176.422 60.3852ZM239.208 60.3852C250.853 60.3853 260.678 66.8143 260.678 84.645V120.914H252.43V85.7368C252.43 72.394 246.365 67.5425 237.51 67.5424C227.806 67.5424 219.8 75.4269 219.8 90.104V120.914H211.552V61.7202H219.437V71.4233H219.8C223.317 64.0242 230.596 60.3852 239.208 60.3852ZM401.203 61.7192H417.336V68.3911H401.203V103.568C401.203 111.088 404.114 113.756 410.664 113.756H417.336V120.914H409.572C398.534 120.913 392.955 115.576 392.955 103.931V68.3911H381.311V61.7192H392.955V43.7671H401.203V61.7192ZM110.581 67.5424C99.3003 67.5424 91.0518 77.125 91.0518 91.3169C91.0519 105.509 99.0578 115.091 110.581 115.091C121.862 115.091 130.11 105.508 130.11 91.3169C130.11 76.7611 122.104 67.5425 110.581 67.5424ZM297.142 67.5424C287.923 67.5424 280.645 74.4561 278.825 85.7368H314.244C313.395 73.3645 306.845 67.5426 297.142 67.5424Z" fill="black"/>
<path d="M438.456 77.2996C438.705 69.6446 441.588 66.1651 446.807 62.5862L450.585 60.0014C454.114 57.5657 456.351 56.2236 456.351 52.247C456.351 49.4634 454.512 46.2821 449.989 46.2821C445.614 46.2821 443.427 48.668 443.03 53.2411H439.053C439.451 45.0891 444.62 42.5043 449.989 42.5043C456.252 42.5043 460.725 46.133 460.725 52.247C460.725 58.2119 456.898 60.3493 453.369 62.785L449.591 65.3698C444.421 68.899 443.626 71.3844 443.427 73.5218H461.123V77.2996H438.456ZM478.042 77.8961C469.492 77.8961 466.112 70.1417 466.112 60.2002C466.112 50.2587 469.492 42.5043 478.042 42.5043C486.591 42.5043 489.971 50.2587 489.971 60.2002C489.971 70.1417 486.591 77.8961 478.042 77.8961ZM478.042 73.9195C483.012 73.9195 485.398 68.9487 485.398 60.2002C485.398 51.4517 483.012 46.4809 478.042 46.4809C472.922 46.4809 470.685 51.4517 470.685 60.2002C470.685 68.9487 473.071 73.9195 478.042 73.9195ZM438.456 121.3C438.705 113.645 441.588 110.165 446.807 106.586L450.585 104.001C454.114 101.566 456.351 100.224 456.351 96.247C456.351 93.4634 454.512 90.2821 449.989 90.2821C445.614 90.2821 443.427 92.668 443.03 97.2411H439.053C439.451 89.0891 444.62 86.5043 449.989 86.5043C456.252 86.5043 460.725 90.133 460.725 96.247C460.725 102.212 456.898 104.349 453.369 106.785L449.591 109.37C444.421 112.899 443.626 115.384 443.427 117.522H461.123V121.3H438.456ZM466.311 104.996C466.311 91.2265 472.723 86.5043 479.235 86.5043C485.796 86.5043 488.977 90.2821 489.574 95.6505H485.199C484.802 92.668 483.211 90.2821 479.235 90.2821C475.208 90.2821 471.132 93.8113 470.884 103.952C472.275 101.168 476.004 99.4283 479.632 99.4283C485.995 99.4283 490.369 103.803 490.369 110.563C490.369 117.87 484.752 121.896 478.837 121.896C472.077 121.896 466.311 117.572 466.311 104.996ZM479.036 103.206C474.761 103.206 471.48 106.387 471.48 110.612C471.48 114.887 474.512 118.118 478.638 118.118C482.714 118.118 485.995 115.434 485.995 110.563C485.995 106.188 482.813 103.206 479.036 103.206Z" fill="#0080FF"/>
<g clip-path="url(#clip1_334_71)">
<path d="M54.4602 16.8218C53.6013 16.8218 53.1102 16.1181 53.1102 15.2001V8.53376H55.6536L54.3272 5.14019H53.1024V0.00012207H49.1816V16.239C49.1816 18.8704 50.6549 20.2758 53.3861 20.2758C55.008 20.2758 56.0489 19.8509 56.6338 19.3324L55.5637 16.5684C55.2202 16.7362 54.8427 16.8229 54.4602 16.8218Z" fill="black"/>
<path d="M21.9733 4.71329C17.0939 4.71329 14.1475 8.2589 14.1475 12.4497C14.1475 16.6405 17.0939 20.2153 21.9733 20.2153C26.8841 20.2153 29.8305 16.6678 29.8305 12.4497C29.8305 8.23161 26.8841 4.71329 21.9733 4.71329ZM21.9733 16.7594C19.5493 16.7633 18.1954 14.7732 18.1954 12.4497C18.1954 10.1555 19.5454 8.16144 21.9694 8.16144C24.3935 8.16144 25.7767 10.1496 25.7767 12.4497C25.7806 14.7732 24.3994 16.7633 21.9733 16.7633V16.7594Z" fill="black"/>
<path d="M8.0411 8.16729C9.39107 8.16729 10.4652 8.71891 11.1715 9.75784L11.2693 9.66623C11.5596 8.47651 12.059 7.34739 12.7445 6.33113C11.6704 5.4228 10.0856 4.71329 7.85328 4.71329C3.28296 4.71329 0 7.92363 0 12.4497C0 16.9758 3.28296 20.2153 7.85719 20.2153C10.0856 20.2153 11.6684 19.5058 12.7484 18.5858C12.0688 17.5753 11.5728 16.4537 11.283 15.2722L11.1773 15.1766C10.8252 15.677 10.355 16.0834 9.80807 16.3601C9.26117 16.6368 8.65436 16.7753 8.0411 16.7633C5.67377 16.7633 4.02055 15.009 4.02055 12.4497C4.02055 9.89039 5.67377 8.16729 8.0411 8.16729Z" fill="black"/>
<path d="M35.8973 7.43387C35.8973 7.12465 35.8362 6.81846 35.7174 6.53279C35.5986 6.24711 35.4245 5.98753 35.2051 5.76888C34.9856 5.55023 34.7251 5.37679 34.4383 5.25846C34.1516 5.14013 33.8442 5.07922 33.5339 5.07922H32V19.8484H35.8973V10.4298C36.5429 9.48249 38.2607 8.74764 39.55 8.74764C39.9115 8.74962 40.2716 8.7908 40.6241 8.87044V5.07922C38.7831 5.07922 36.9401 6.11815 35.8973 7.43387Z" fill="black"/>
<path d="M46.492 5.07922H42.5947V19.8484H46.492V5.07922Z" fill="black"/>
<path d="M68.0204 5.07922L64.1074 15.2327L60.2864 5.07922H56.1133L62.1979 20.1895L60.3314 25.0294H62.194C62.8095 25.0294 63.4109 24.8453 63.9202 24.5008C64.4294 24.1564 64.8232 23.6676 65.0504 23.0977L72.2248 5.07922H68.0204Z" fill="black"/>
<path d="M46.492 0.00012207H42.5947V3.30988H46.492V0.00012207Z" fill="black"/>
<path d="M74.15 6.95108C74.0236 6.95213 73.8983 6.9269 73.7822 6.87701C73.67 6.83227 73.5676 6.76605 73.4809 6.68209C73.397 6.59545 73.3306 6.49354 73.2853 6.38191C73.2363 6.26521 73.211 6.14 73.2109 6.01351C73.2108 5.88763 73.2361 5.76302 73.2853 5.64706C73.3819 5.42071 73.5629 5.24047 73.7901 5.14416C73.9039 5.09552 74.0262 5.06969 74.15 5.06815C74.277 5.06825 74.4027 5.09342 74.5198 5.14222C74.6315 5.18691 74.7332 5.25315 74.8192 5.33714C74.9073 5.42452 74.9772 5.5284 75.0249 5.64281C75.0726 5.75722 75.0971 5.87989 75.097 6.00377C75.0978 6.13035 75.0725 6.25575 75.0226 6.37217C74.9265 6.59777 74.7463 6.77738 74.5198 6.87311C74.4033 6.92417 74.2774 6.95071 74.15 6.95108ZM74.15 5.24357C73.9984 5.24357 73.8501 5.28839 73.724 5.37235C73.5978 5.45631 73.4995 5.57564 73.4415 5.71526C73.3834 5.85488 73.3683 6.00851 73.3978 6.15673C73.4274 6.30495 73.5005 6.4411 73.6077 6.54796C73.715 6.65482 73.8517 6.72759 74.0004 6.75707C74.1492 6.78655 74.3034 6.77142 74.4435 6.71359C74.5837 6.65576 74.7035 6.55782 74.7877 6.43217C74.872 6.30652 74.917 6.15879 74.917 6.00766C74.9165 5.80517 74.8355 5.61112 74.6918 5.46794C74.5481 5.32476 74.3533 5.24409 74.15 5.24357Z" fill="black"/>
<path d="M74.4758 6.40537C74.446 6.31071 74.4067 6.21928 74.3584 6.13248C74.4273 6.09015 74.4802 6.02625 74.5087 5.95079C74.5373 5.87533 74.5399 5.79257 74.5162 5.71547C74.4925 5.63836 74.4438 5.57127 74.3777 5.52469C74.3116 5.47811 74.2319 5.45467 74.1511 5.45805H73.7598V6.55351H73.9789V6.19096H74.1335C74.1995 6.27621 74.248 6.37357 74.2763 6.47749C74.2839 6.50398 74.2931 6.53001 74.3037 6.55546H74.5424C74.5161 6.50735 74.4938 6.45715 74.4758 6.40537ZM74.1511 5.97264H73.9554V5.68026H74.1511C74.19 5.68026 74.2273 5.69567 74.2548 5.72308C74.2823 5.7505 74.2978 5.78768 74.2978 5.82645C74.2978 5.86523 74.2823 5.90241 74.2548 5.92983C74.2273 5.95724 74.19 5.97264 74.1511 5.97264Z" fill="black"/>
</g>
</g>
<defs>
<clipPath id="clip0_334_71">
<rect width="500" height="122.248" fill="white"/>
</clipPath>
<clipPath id="clip1_334_71">
<rect width="75.0894" height="25.0298" fill="white"/>
</clipPath>
</defs>
</svg>
