<svg width="1207" height="224" viewBox="0 0 1207 224" fill="none" xmlns="http://www.w3.org/2000/svg">
<g clip-path="url(#clip0_201_308)">
<path d="M1121.44 0L1142.82 1.95086C1163.36 4.69338 1183.43 10.2302 1202.02 19.3248L1185.52 63.1438C1168.1 53.7194 1148.08 48.3663 1128.28 46.6558C1116.52 45.6379 1080.98 43.4373 1078.21 59.7228C1075.65 74.8113 1091.82 77.9025 1102.87 81.0126C1139.56 91.3418 1189.32 94.8383 1203.56 137.239L1206.26 151.262C1206.1 154.523 1206.49 157.911 1206.26 161.158C1200.9 237.548 1095.89 228.524 1044.28 212.177C1034.86 209.19 1025.82 205.26 1016.85 201.193L1033.15 155.536C1054.98 167.166 1079.52 173.966 1104.25 175.766C1116.52 176.657 1146 178.094 1151.36 163.981C1158.48 145.245 1134.13 139.421 1121.08 135.849C1083.26 125.501 1031.7 122.353 1026.33 73.2186C1021.01 24.6214 1061.91 2.19119 1104.49 0.00471223H1121.45L1121.44 0Z" fill="black"/>
<path d="M580.985 4.71289H710.321C739.853 6.56951 767.141 22.1057 771.279 53.5504C773.696 71.9187 769.267 89.8534 754.861 102.025C752.293 104.193 749.122 105.602 746.846 107.906C780.849 119.305 790.783 163.821 770.789 191.939C758.155 209.704 736.107 217.098 715.057 218.672L580.985 218.653V4.71289ZM632.815 87.6481H706.085C707.093 87.6481 711.678 85.5841 712.776 84.915C724.213 77.9362 724.213 59.6622 712.776 52.6834C711.678 52.0142 707.093 49.9503 706.085 49.9503H632.815V87.6481ZM632.815 130.529V173.646L633.521 174.353H705.143C723.402 174.353 733.237 151.409 721.386 137.847C718.794 134.883 711.881 130.529 707.97 130.529H632.815Z" fill="black"/>
<path d="M363.29 4.71301L481.816 4.68945C530.941 7.07855 562.593 39.8898 555.002 90.174C550.836 117.759 532.793 135.553 506.065 142.065L554.592 218.643H495.458L424.077 105.305L424.77 104.603C443.072 102.421 473.933 108.787 490.355 101.384C513.534 90.9373 506.235 50.8834 479.908 50.8834H415.591V218.639H363.29V4.71301Z" fill="black"/>
<path d="M264.342 218.647H204.497L131.929 72.0967L130.43 73.1805L98.4813 138.068H142.771L163.977 182.834H76.5694L58.8986 218.647H0.47168L109.315 4.94277L154.345 4.68359L155.735 5.17838L264.342 218.647Z" fill="black"/>
<path d="M856.632 4.71289L856.613 129.37C857.993 154.868 870.424 173.363 897.369 174.848C927.546 176.507 944.091 159.26 945.707 129.841L945.688 4.71289H998.931V131.703C996.01 179.4 970.602 214.76 921.811 221.866C855.656 231.503 806.899 199.545 803.388 130.76V4.71289H856.627H856.632Z" fill="black"/>
<path d="M327.948 4.71289H276.118V218.648H327.948V4.71289Z" fill="black"/>
</g>
<defs>
<clipPath id="clip0_201_308">
<rect width="1206.33" height="223.831" fill="white"/>
</clipPath>
</defs>
</svg>
