<svg width="1000" height="1000" viewBox="0 0 1000 1000" fill="none" xmlns="http://www.w3.org/2000/svg">
<rect width="1000" height="1000" rx="90" fill="#0080FF"/>
<path d="M463.513 774.051H387.411V746.926C374.602 758.981 363.299 768.023 348.983 774.805C341.449 778.572 333.913 780.079 327.132 780.079C306.035 780.079 291.719 768.023 282.677 752.2C272.881 737.131 268.36 716.786 268.36 699.456V436.49C268.36 419.16 272.882 398.816 282.677 382.993C291.719 367.924 306.034 355.868 327.132 355.868C341.448 355.868 356.518 364.156 367.82 372.444C374.602 377.719 380.63 382.994 387.411 389.021V220.241H463.513V774.051ZM574.024 774.051H504.955V704.981H574.024V774.051ZM364.807 427.449C353.504 427.449 344.462 437.997 344.462 452.313V683.633C344.462 697.949 353.504 708.498 364.807 708.498C376.109 708.498 387.411 697.949 387.411 683.633V452.313C387.411 440.258 376.109 427.45 364.807 427.449ZM569.001 220.241C644.349 220.241 685.038 235.311 706.889 277.506C727.986 319.701 731 389.021 731 497.522C731 558.931 723.674 584.11 706.889 613.183C685.038 655.378 644.349 670.447 569.001 670.447H504.955V220.241H569.001ZM586.331 589.071C614.21 589.071 630.033 586.057 638.321 558.932C642.089 546.122 645.103 526.532 645.856 500.16C646.61 473.788 646.609 541.978 646.609 496.77C646.609 451.561 646.61 416.146 645.856 389.774C645.103 364.156 642.089 344.566 638.321 331.003C630.033 304.631 614.21 301.617 586.331 301.617V589.071Z" fill="white"/>
</svg>
