<svg width="1000" height="1000" viewBox="0 0 1000 1000" fill="none" xmlns="http://www.w3.org/2000/svg">
<rect width="1000" height="1000" rx="20" fill="#0080FF"/>
<path d="M463.513 773.81H387.411V746.685C374.602 758.74 363.299 767.782 348.983 774.563C341.449 778.331 333.913 779.838 327.132 779.838C306.035 779.838 291.719 767.782 282.677 751.959C272.881 736.889 268.36 716.545 268.36 699.215V436.249C268.36 418.919 272.882 398.575 282.677 382.752C291.719 367.682 306.034 355.627 327.132 355.627C341.448 355.627 356.518 363.915 367.82 372.203C374.602 377.478 380.63 382.752 387.411 388.78V220H463.513V773.81ZM574.024 773.81H504.955V704.74H574.024V773.81ZM364.807 427.208C353.504 427.208 344.462 437.756 344.462 452.072V683.392C344.462 697.708 353.504 708.257 364.807 708.257C376.109 708.257 387.411 697.708 387.411 683.392V452.072C387.411 440.017 376.109 427.208 364.807 427.208ZM569.001 220C644.349 220 685.038 235.07 706.889 277.265C727.986 319.46 731 388.78 731 497.281C731 558.69 723.674 583.869 706.889 612.941C685.038 655.136 644.349 670.206 569.001 670.206H504.955V220H569.001ZM586.331 588.83C614.21 588.83 630.033 585.816 638.321 558.69C642.089 545.881 645.103 526.291 645.856 499.919C646.61 473.547 646.609 541.737 646.609 496.528C646.609 451.319 646.61 415.905 645.856 389.533C645.103 363.915 642.089 344.324 638.321 330.762C630.033 304.39 614.21 301.376 586.331 301.376V588.83Z" fill="white"/>
</svg>
