<svg width="3525" height="1000" viewBox="0 0 3525 1000" fill="none" xmlns="http://www.w3.org/2000/svg">
<rect width="1000" height="1000" rx="20" fill="#0080FF"/>
<path d="M463.513 773.81H387.411V746.685C374.602 758.74 363.299 767.782 348.983 774.563C341.449 778.331 333.913 779.838 327.132 779.838C306.035 779.838 291.719 767.782 282.677 751.959C272.881 736.889 268.36 716.545 268.36 699.215V436.249C268.36 418.919 272.882 398.575 282.677 382.752C291.719 367.682 306.034 355.627 327.132 355.627C341.448 355.627 356.518 363.915 367.82 372.203C374.602 377.478 380.63 382.752 387.411 388.78V220H463.513V773.81ZM574.024 773.81H504.955V704.74H574.024V773.81ZM364.807 427.208C353.504 427.208 344.462 437.756 344.462 452.072V683.392C344.462 697.708 353.504 708.257 364.807 708.257C376.109 708.257 387.411 697.708 387.411 683.392V452.072C387.411 440.017 376.109 427.208 364.807 427.208ZM569.001 220C644.349 220 685.038 235.07 706.889 277.265C727.986 319.46 731 388.78 731 497.281C731 558.69 723.674 583.869 706.889 612.941C685.038 655.136 644.349 670.206 569.001 670.206H504.955V220H569.001ZM586.331 588.83C614.21 588.83 630.033 585.816 638.321 558.69C642.089 545.881 645.103 526.291 645.856 499.919C646.61 473.547 646.609 541.737 646.609 496.528C646.609 451.319 646.61 415.905 645.856 389.533C645.103 363.915 642.089 344.324 638.321 330.762C630.033 304.39 614.21 301.376 586.331 301.376V588.83Z" fill="white"/>
<path d="M3443.78 423.166V339.186C3443.78 324.323 3440.8 313.918 3433.37 305C3429.66 301.284 3423.71 299.055 3417.02 299.055C3402.9 299.055 3396.21 309.459 3393.24 319.121C3391.01 325.066 3390.27 331.755 3390.27 339.186V667.673C3390.27 683.28 3393.98 693.684 3401.41 701.859C3405.13 705.575 3410.33 707.805 3417.02 707.805C3431.14 707.805 3437.83 698.886 3440.8 687.739C3443.03 682.536 3443.78 675.848 3443.78 667.673V568.83H3411.82V501.2H3524.04V773.205H3476.48L3466.81 747.193C3451.95 765.773 3430.4 779.15 3404.39 779.15C3378.38 779.15 3360.54 772.461 3347.16 760.57C3333.78 749.423 3324.87 735.302 3318.92 720.439C3312.23 703.346 3309.26 683.28 3310 660.984V339.186C3310.75 317.634 3315.21 297.568 3323.38 280.475C3330.07 265.611 3339.73 250.748 3354.59 239.6C3369.46 228.452 3390.27 221.021 3417.02 221.021C3443.78 221.021 3463.84 228.452 3478.71 239.6C3493.57 250.748 3503.97 265.611 3510.66 280.475C3518.84 297.568 3523.3 317.634 3524.04 339.186V423.166H3443.78Z" fill="white"/>
<path d="M3261.31 660.984C3260.57 683.28 3256.11 703.346 3247.94 720.439C3241.25 735.302 3230.84 749.423 3215.98 760.57C3201.12 772.461 3181.05 779.15 3154.3 779.15C3127.54 779.15 3106.73 772.461 3091.87 760.57C3077 749.423 3067.34 735.302 3060.65 720.439C3052.48 703.346 3048.02 683.28 3047.28 660.984V339.186C3048.02 317.634 3052.48 297.568 3060.65 280.475C3067.34 265.611 3077 250.748 3091.87 239.6C3106.73 228.452 3127.54 221.021 3154.3 221.021C3181.05 221.021 3201.12 228.452 3215.98 239.6C3230.84 250.748 3241.25 265.611 3247.94 280.475C3256.11 297.568 3260.57 317.634 3261.31 339.186V660.984ZM3181.05 339.186C3181.05 324.323 3178.08 313.918 3170.65 305C3166.93 301.284 3160.98 299.055 3154.3 299.055C3140.18 299.055 3133.49 309.459 3130.51 319.121C3128.28 325.066 3127.54 331.755 3127.54 339.186V660.984C3127.54 676.591 3131.26 686.996 3138.69 695.171C3142.4 698.886 3147.61 701.116 3154.3 701.116C3168.42 701.116 3175.1 692.198 3178.08 681.05C3180.31 675.848 3181.05 669.159 3181.05 660.984V339.186Z" fill="white"/>
<path d="M2775.96 773.204V226.966H2839.13C2913.45 226.966 2953.58 241.829 2975.14 283.448C2995.94 325.066 2998.92 393.439 2998.92 500.457C2998.92 607.475 2995.94 675.104 2975.14 716.723C2953.58 758.341 2913.45 773.204 2839.13 773.204H2775.96ZM2856.23 692.941C2883.72 692.941 2899.33 689.968 2907.51 663.214C2911.22 650.579 2914.19 631.257 2914.94 605.245C2915.68 579.234 2915.68 544.304 2915.68 499.714C2915.68 455.123 2915.68 420.193 2914.94 394.182C2914.19 368.914 2911.22 349.591 2907.51 336.214C2899.33 310.202 2883.72 307.229 2856.23 307.229V692.941Z" fill="white"/>
<path d="M2567.48 488.566L2560.79 463.298H2556.33V773.204H2482.75V226.966H2554.1L2632.13 511.604L2638.82 536.873H2643.28V226.966H2716.86V773.204H2645.51L2567.48 488.566Z" fill="white"/>
<path d="M2343.52 423.166V339.186C2343.52 324.323 2340.55 313.918 2333.11 305C2329.4 301.284 2323.45 299.055 2316.76 299.055C2302.64 299.055 2295.96 309.459 2292.98 319.121C2290.75 325.066 2290.01 331.755 2290.01 339.186V667.673C2290.01 683.28 2293.73 693.684 2301.16 701.859C2304.87 705.575 2310.08 707.805 2316.76 707.805C2330.88 707.805 2337.57 698.886 2340.55 687.739C2342.78 682.536 2343.52 675.848 2343.52 667.673V568.83H2311.56V501.2H2423.78V773.205H2376.22L2366.56 747.193C2351.69 765.773 2330.14 779.15 2304.13 779.15C2278.12 779.15 2260.28 772.461 2246.91 760.57C2233.53 749.423 2224.61 735.302 2218.66 720.439C2211.98 703.346 2209 683.28 2209.75 660.984V339.186C2210.49 317.634 2214.95 297.568 2223.12 280.475C2229.81 265.611 2239.47 250.748 2254.34 239.6C2269.2 228.452 2290.01 221.021 2316.76 221.021C2343.52 221.021 2363.58 228.452 2378.45 239.6C2393.31 250.748 2403.72 265.611 2410.41 280.475C2418.58 297.568 2423.04 317.634 2423.78 339.186V423.166H2343.52Z" fill="white"/>
<path d="M2074.88 226.966H2155.14V773.204H2074.88V226.966Z" fill="white"/>
<path d="M1953.16 373.372C1953.16 355.536 1952.42 335.47 1947.22 319.863C1942.02 304.999 1933.84 294.595 1921.21 294.595C1900.4 295.338 1893.71 316.89 1893.71 348.847C1893.71 367.427 1901.88 386.75 1913.77 407.559C1925.67 428.368 1941.27 449.92 1956.88 472.959C1975.46 500.456 1994.04 528.697 2008.16 556.195C2022.28 583.693 2031.94 611.934 2031.94 641.661C2031.94 678.077 2025.99 712.263 2008.9 737.531C1991.81 762.799 1964.31 779.149 1920.46 779.149C1869.18 779.149 1840.2 759.827 1823.85 730.099C1807.5 700.372 1803.78 660.984 1803.78 620.109L1882.56 612.677C1882.56 635.715 1883.3 658.754 1889.25 675.847C1894.45 693.684 1903.37 705.574 1920.46 705.574C1944.24 705.574 1953.16 680.306 1953.16 645.377C1953.16 627.54 1944.24 606.731 1932.35 585.179C1925.67 574.775 1918.98 563.627 1911.54 552.479C1895.94 530.184 1878.84 504.915 1861.01 477.418C1843.17 449.92 1829.79 421.679 1821.62 392.695C1817.16 378.575 1814.93 363.711 1814.93 348.847C1814.93 319.12 1821.62 287.163 1838.71 262.638C1855.81 238.856 1881.82 221.763 1919.72 221.02C1968.03 220.277 1996.27 240.343 2011.87 269.327C2027.48 299.054 2031.94 335.47 2031.94 365.94L1953.16 373.372Z" fill="white"/>
<path d="M1592.24 226.966H1775.81V309.459H1672.51V452.893H1746.82V540.589H1672.51V690.711H1775.81V773.204H1592.24V226.966Z" fill="white"/>
<path d="M1315.73 773.204V226.966H1378.9C1453.22 226.966 1493.35 241.829 1514.9 283.448C1535.71 325.066 1538.68 393.439 1538.68 500.457C1538.68 607.475 1535.71 675.104 1514.9 716.723C1493.35 758.341 1453.22 773.204 1378.9 773.204H1315.73ZM1395.99 692.941C1423.49 692.941 1439.1 689.968 1447.27 663.214C1450.99 650.579 1453.96 631.257 1454.7 605.245C1455.45 579.234 1455.45 544.304 1455.45 499.714C1455.45 455.123 1455.45 420.193 1454.7 394.182C1453.96 368.914 1450.99 349.591 1447.27 336.214C1439.1 310.202 1423.49 307.229 1395.99 307.229V692.941Z" fill="white"/>
</svg>
