<svg width="6957" height="1000" viewBox="0 0 6957 1000" fill="none" xmlns="http://www.w3.org/2000/svg">
<rect width="1000" height="1000" rx="20" fill="#0080FF"/>
<path d="M463.512 773.81H387.41V746.685C374.601 758.74 363.298 767.782 348.982 774.563C341.448 778.331 333.912 779.838 327.131 779.838C306.034 779.838 291.718 767.782 282.676 751.959C272.881 736.889 268.359 716.545 268.359 699.215V436.249C268.359 418.919 272.881 398.575 282.676 382.752C291.718 367.682 306.034 355.627 327.131 355.627C341.447 355.627 356.517 363.915 367.819 372.203C374.601 377.478 380.629 382.752 387.41 388.78V220H463.512V773.81ZM574.023 773.81H504.954V704.74H574.023V773.81ZM364.806 427.208C353.503 427.208 344.461 437.756 344.461 452.072V683.392C344.461 697.708 353.503 708.257 364.806 708.257C376.108 708.257 387.41 697.708 387.41 683.392V452.072C387.41 440.017 376.108 427.208 364.806 427.208ZM569 220C644.348 220 685.037 235.07 706.888 277.265C727.985 319.46 730.999 388.78 730.999 497.281C730.999 558.69 723.673 583.869 706.888 612.941C685.037 655.136 644.348 670.206 569 670.206H504.954V220H569ZM586.33 588.83C614.209 588.83 630.032 585.816 638.32 558.69C642.088 545.881 645.102 526.291 645.855 499.919C646.609 473.547 646.608 541.737 646.608 496.528C646.608 451.319 646.609 415.905 645.855 389.533C645.102 363.915 642.088 344.324 638.32 330.762C630.032 304.39 614.209 301.376 586.33 301.376V588.83Z" fill="white"/>
<path d="M3443.77 423.166V339.186C3443.77 324.323 3440.8 313.918 3433.37 305C3429.65 301.284 3423.71 299.055 3417.02 299.055C3402.9 299.055 3396.21 309.459 3393.24 319.121C3391.01 325.066 3390.27 331.755 3390.27 339.186V667.673C3390.27 683.28 3393.98 693.684 3401.41 701.859C3405.13 705.575 3410.33 707.805 3417.02 707.805C3431.14 707.805 3437.83 698.886 3440.8 687.739C3443.03 682.536 3443.77 675.848 3443.77 667.673V568.83H3411.82V501.2H3524.04V773.205H3476.47L3466.81 747.193C3451.95 765.773 3430.4 779.15 3404.39 779.15C3378.37 779.15 3360.54 772.461 3347.16 760.57C3333.78 749.423 3324.87 735.302 3318.92 720.439C3312.23 703.346 3309.26 683.28 3310 660.984V339.186C3310.75 317.634 3315.2 297.568 3323.38 280.475C3330.07 265.611 3339.73 250.748 3354.59 239.6C3369.46 228.452 3390.27 221.021 3417.02 221.021C3443.77 221.021 3463.84 228.452 3478.7 239.6C3493.57 250.748 3503.97 265.611 3510.66 280.475C3518.84 297.568 3523.3 317.634 3524.04 339.186V423.166H3443.77Z" fill="white"/>
<path d="M3261.31 660.984C3260.57 683.28 3256.11 703.346 3247.94 720.439C3241.25 735.302 3230.84 749.423 3215.98 760.57C3201.12 772.461 3181.05 779.15 3154.3 779.15C3127.54 779.15 3106.73 772.461 3091.87 760.57C3077 749.423 3067.34 735.302 3060.65 720.439C3052.48 703.346 3048.02 683.28 3047.28 660.984V339.186C3048.02 317.634 3052.48 297.568 3060.65 280.475C3067.34 265.611 3077 250.748 3091.87 239.6C3106.73 228.452 3127.54 221.021 3154.3 221.021C3181.05 221.021 3201.12 228.452 3215.98 239.6C3230.84 250.748 3241.25 265.611 3247.94 280.475C3256.11 297.568 3260.57 317.634 3261.31 339.186V660.984ZM3181.05 339.186C3181.05 324.323 3178.08 313.918 3170.65 305C3166.93 301.284 3160.98 299.055 3154.3 299.055C3140.18 299.055 3133.49 309.459 3130.51 319.121C3128.28 325.066 3127.54 331.755 3127.54 339.186V660.984C3127.54 676.591 3131.26 686.996 3138.69 695.171C3142.4 698.886 3147.61 701.116 3154.3 701.116C3168.42 701.116 3175.1 692.198 3178.08 681.05C3180.31 675.848 3181.05 669.159 3181.05 660.984V339.186Z" fill="white"/>
<path d="M2775.96 773.204V226.966H2839.13C2913.45 226.966 2953.58 241.829 2975.13 283.448C2995.94 325.066 2998.92 393.439 2998.92 500.457C2998.92 607.475 2995.94 675.104 2975.13 716.723C2953.58 758.341 2913.45 773.204 2839.13 773.204H2775.96ZM2856.22 692.941C2883.72 692.941 2899.33 689.968 2907.5 663.214C2911.22 650.579 2914.19 631.257 2914.94 605.245C2915.68 579.234 2915.68 544.304 2915.68 499.714C2915.68 455.123 2915.68 420.193 2914.94 394.182C2914.19 368.914 2911.22 349.591 2907.5 336.214C2899.33 310.202 2883.72 307.229 2856.22 307.229V692.941Z" fill="white"/>
<path d="M2567.48 488.566L2560.79 463.298H2556.33V773.204H2482.75V226.966H2554.1L2632.13 511.604L2638.82 536.873H2643.28V226.966H2716.86V773.204H2645.51L2567.48 488.566Z" fill="white"/>
<path d="M2343.52 423.166V339.186C2343.52 324.323 2340.54 313.918 2333.11 305C2329.4 301.284 2323.45 299.055 2316.76 299.055C2302.64 299.055 2295.95 309.459 2292.98 319.121C2290.75 325.066 2290.01 331.755 2290.01 339.186V667.673C2290.01 683.28 2293.72 693.684 2301.16 701.859C2304.87 705.575 2310.07 707.805 2316.76 707.805C2330.88 707.805 2337.57 698.886 2340.54 687.739C2342.77 682.536 2343.52 675.848 2343.52 667.673V568.83H2311.56V501.2H2423.78V773.205H2376.22L2366.56 747.193C2351.69 765.773 2330.14 779.15 2304.13 779.15C2278.12 779.15 2260.28 772.461 2246.9 760.57C2233.53 749.423 2224.61 735.302 2218.66 720.439C2211.97 703.346 2209 683.28 2209.74 660.984V339.186C2210.49 317.634 2214.95 297.568 2223.12 280.475C2229.81 265.611 2239.47 250.748 2254.34 239.6C2269.2 228.452 2290.01 221.021 2316.76 221.021C2343.52 221.021 2363.58 228.452 2378.45 239.6C2393.31 250.748 2403.71 265.611 2410.4 280.475C2418.58 297.568 2423.04 317.634 2423.78 339.186V423.166H2343.52Z" fill="white"/>
<path d="M2074.88 226.966H2155.14V773.204H2074.88V226.966Z" fill="white"/>
<path d="M1953.16 373.372C1953.16 355.536 1952.42 335.47 1947.22 319.863C1942.01 304.999 1933.84 294.595 1921.2 294.595C1900.39 295.338 1893.71 316.89 1893.71 348.847C1893.71 367.427 1901.88 386.75 1913.77 407.559C1925.66 428.368 1941.27 449.92 1956.88 472.959C1975.46 500.456 1994.04 528.697 2008.16 556.195C2022.28 583.693 2031.94 611.934 2031.94 641.661C2031.94 678.077 2025.99 712.263 2008.9 737.531C1991.81 762.799 1964.31 779.149 1920.46 779.149C1869.18 779.149 1840.2 759.827 1823.85 730.099C1807.5 700.372 1803.78 660.984 1803.78 620.109L1882.56 612.677C1882.56 635.715 1883.3 658.754 1889.25 675.847C1894.45 693.684 1903.37 705.574 1920.46 705.574C1944.24 705.574 1953.16 680.306 1953.16 645.377C1953.16 627.54 1944.24 606.731 1932.35 585.179C1925.66 574.775 1918.97 563.627 1911.54 552.479C1895.94 530.184 1878.84 504.915 1861.01 477.418C1843.17 449.92 1829.79 421.679 1821.62 392.695C1817.16 378.575 1814.93 363.711 1814.93 348.847C1814.93 319.12 1821.62 287.163 1838.71 262.638C1855.8 238.856 1881.82 221.763 1919.72 221.02C1968.02 220.277 1996.27 240.343 2011.87 269.327C2027.48 299.054 2031.94 335.47 2031.94 365.94L1953.16 373.372Z" fill="white"/>
<path d="M1592.24 226.966H1775.81V309.459H1672.51V452.893H1746.82V540.589H1672.51V690.711H1775.81V773.204H1592.24V226.966Z" fill="white"/>
<path d="M1315.73 773.204V226.966H1378.9C1453.22 226.966 1493.35 241.829 1514.9 283.448C1535.71 325.066 1538.68 393.439 1538.68 500.457C1538.68 607.475 1535.71 675.104 1514.9 716.723C1493.35 758.341 1453.22 773.204 1378.9 773.204H1315.73ZM1395.99 692.941C1423.49 692.941 1439.09 689.968 1447.27 663.214C1450.99 650.579 1453.96 631.257 1454.7 605.245C1455.44 579.234 1455.44 544.304 1455.44 499.714C1455.44 455.123 1455.44 420.193 1454.7 394.182C1453.96 368.914 1450.99 349.591 1447.27 336.214C1439.09 310.202 1423.49 307.229 1395.99 307.229V692.941Z" fill="white"/>
<path d="M4524.04 0L4524.04 1000" stroke="white" stroke-width="22"/>
<g clip-path="url(#clip0_39_1358)">
<path d="M6562.81 580.479C6546.43 580.479 6537.06 567.33 6537.06 550.174V425.602H6585.57L6560.27 362.187H6536.91V266.136H6462.13V569.588C6462.13 618.761 6490.23 645.023 6542.32 645.023C6573.26 645.023 6593.11 637.082 6604.27 627.393L6583.86 575.744C6577.31 578.878 6570.1 580.499 6562.81 580.479Z" fill="white"/>
<path d="M5943.15 354.21C5850.08 354.21 5793.88 420.466 5793.88 498.779C5793.88 577.091 5850.08 643.894 5943.15 643.894C6036.82 643.894 6093.02 577.601 6093.02 498.779C6093.02 419.956 6036.82 354.21 5943.15 354.21ZM5943.15 579.313C5896.92 579.386 5871.09 542.197 5871.09 498.779C5871.09 455.907 5896.84 418.645 5943.08 418.645C5989.31 418.645 6015.7 455.798 6015.7 498.779C6015.77 542.197 5989.43 579.386 5943.15 579.386V579.313Z" fill="white"/>
<path d="M5677.41 418.754C5703.16 418.754 5723.65 429.062 5737.12 448.476L5738.99 446.764C5744.53 424.532 5754.05 403.433 5767.13 384.442C5746.64 367.468 5716.41 354.21 5673.83 354.21C5586.66 354.21 5524.04 414.201 5524.04 498.779C5524.04 583.356 5586.66 643.894 5673.91 643.894C5716.41 643.894 5746.6 630.635 5767.2 613.443C5754.24 594.56 5744.78 573.601 5739.25 551.521L5737.23 549.736C5730.52 559.087 5721.55 566.682 5711.12 571.852C5700.69 577.022 5689.11 579.61 5677.41 579.386C5632.26 579.386 5600.73 546.604 5600.73 498.779C5600.73 450.953 5632.26 418.754 5677.41 418.754Z" fill="white"/>
<path d="M6208.74 405.05C6208.74 399.271 6207.57 393.55 6205.31 388.211C6203.04 382.873 6199.72 378.022 6195.54 373.936C6191.35 369.851 6186.38 366.609 6180.91 364.398C6175.44 362.187 6169.58 361.049 6163.66 361.049H6134.4V637.037H6208.74V461.034C6221.05 443.332 6253.82 429.6 6278.41 429.6C6285.3 429.637 6292.17 430.406 6298.9 431.894V361.049C6263.78 361.049 6228.63 380.463 6208.74 405.05Z" fill="white"/>
<path d="M6410.82 361.049H6336.48V637.037H6410.82V361.049Z" fill="white"/>
<path d="M6821.45 361.049L6746.82 550.784L6673.94 361.049H6594.34L6710.4 643.411L6674.8 733.853H6710.32C6722.06 733.853 6733.53 730.412 6743.25 723.976C6752.96 717.541 6760.47 708.406 6764.81 697.756L6901.65 361.049H6821.45Z" fill="white"/>
<path d="M6410.82 266.136H6336.48V327.984H6410.82V266.136Z" fill="white"/>
<path d="M6938.37 396.026C6935.96 396.045 6933.57 395.574 6931.36 394.642C6929.22 393.806 6927.26 392.568 6925.61 390.999C6924.01 389.38 6922.74 387.476 6921.88 385.39C6920.94 383.209 6920.46 380.869 6920.46 378.506C6920.46 376.153 6920.94 373.825 6921.88 371.658C6923.72 367.428 6927.17 364.06 6931.51 362.26C6933.68 361.351 6936.01 360.869 6938.37 360.84C6940.79 360.842 6943.19 361.312 6945.43 362.224C6947.56 363.059 6949.5 364.297 6951.14 365.866C6952.82 367.499 6954.15 369.441 6955.06 371.578C6955.97 373.716 6956.44 376.009 6956.43 378.324C6956.45 380.689 6955.97 383.032 6955.02 385.208C6953.18 389.424 6949.75 392.78 6945.43 394.569C6943.2 395.523 6940.8 396.019 6938.37 396.026ZM6938.37 364.118C6935.48 364.118 6932.65 364.955 6930.25 366.524C6927.84 368.093 6925.97 370.323 6924.86 372.932C6923.75 375.541 6923.46 378.412 6924.03 381.182C6924.59 383.952 6925.98 386.496 6928.03 388.493C6930.08 390.49 6932.68 391.85 6935.52 392.4C6938.36 392.951 6941.3 392.669 6943.97 391.588C6946.64 390.507 6948.93 388.677 6950.54 386.329C6952.14 383.981 6953 381.22 6953 378.396C6952.99 374.613 6951.45 370.986 6948.71 368.311C6945.97 365.635 6942.25 364.128 6938.37 364.118Z" fill="white"/>
<path d="M6944.57 385.831C6944 384.062 6943.25 382.354 6942.33 380.732C6943.65 379.941 6944.65 378.747 6945.2 377.337C6945.74 375.927 6945.79 374.38 6945.34 372.939C6944.89 371.498 6943.96 370.245 6942.7 369.374C6941.44 368.504 6939.92 368.066 6938.38 368.129H6930.91V388.6H6935.09V381.825H6938.04C6939.3 383.418 6940.22 385.237 6940.76 387.179C6940.91 387.674 6941.08 388.16 6941.29 388.636H6945.84C6945.34 387.737 6944.91 386.799 6944.57 385.831ZM6938.38 377.745H6934.64V372.281H6938.38C6939.12 372.281 6939.83 372.569 6940.35 373.082C6940.88 373.594 6941.17 374.289 6941.17 375.013C6941.17 375.738 6940.88 376.433 6940.35 376.945C6939.83 377.457 6939.12 377.745 6938.38 377.745Z" fill="white"/>
</g>
<defs>
<clipPath id="clip0_39_1358">
<rect width="1432.25" height="467.726" fill="white" transform="translate(5524.04 266.137)"/>
</clipPath>
</defs>
</svg>
