<svg width="262" height="89" viewBox="0 0 262 89" fill="none" xmlns="http://www.w3.org/2000/svg">
<g clip-path="url(#clip0_94_30)">
<g clip-path="url(#clip1_94_30)">
<path d="M47.0113 28.9811V26.5916C47.0113 22.0271 43.3062 18.3203 38.7438 18.3203H13.2675C8.70508 18.3203 5.01531 22.0271 5 26.5916V52.049C5 56.6135 8.70508 60.3203 13.2675 60.3203H38.7438C43.3062 60.3203 47.0113 56.6135 47.0113 52.049V49.6595H42.8775V52.0643C42.8622 54.3313 41.025 56.154 38.7591 56.1693H13.2522C10.9863 56.154 9.14907 54.3313 9.13376 52.0643V26.5763C9.14907 24.3094 10.9863 22.4866 13.2522 22.4713H38.7438C41.0097 22.4866 42.8469 24.3247 42.8622 26.5763V28.9811H47.0113Z" fill="#D92F36"/>
<path d="M49.8131 37.2525H47.0113V34.4494C47.0113 33.3006 46.0927 33.1168 44.9444 33.1168H44.9291C43.7808 33.1168 42.8622 33.3006 42.8622 34.4494V37.2525H40.0451C38.8969 37.2525 38.7131 38.1715 38.7131 39.3203C38.7131 40.4691 38.8969 41.3882 40.0451 41.3882H42.8622V44.1912C42.8622 45.34 43.7808 45.5238 44.9291 45.5238H44.9444C46.0927 45.5238 47.0113 45.34 47.0113 44.1912V41.3882H49.8131C50.9613 41.3882 51.145 40.4691 51.145 39.3203C51.145 38.1715 50.9613 37.2525 49.8131 37.2525Z" fill="#D92F36"/>
<path d="M93.2176 38.8914C93.2176 34.8783 90.4923 33.9286 88.1652 33.9286C85.5931 33.9286 83.1128 34.572 81.8114 35.1693C82.2095 36.1037 82.4545 37.2984 82.4545 38.7383V53.3816H79.469V38.8914C79.469 34.8783 76.8356 33.9286 74.3554 33.9286C71.8751 33.9286 69.9919 34.4188 68.6446 34.9243V53.3816H65.6745V33.1475C68.5068 32.014 71.477 31.2634 74.3554 31.2634C76.8815 31.2634 78.8259 31.8149 80.1579 32.9483C82.7301 31.9527 85.5165 31.2634 88.1499 31.2634C93.3554 31.2634 96.1877 33.3925 96.1877 38.7995V53.3969H93.2176V38.8914Z" fill="#58595B"/>
<path d="M104.716 42.7208V42.8127C104.716 48.1278 108.543 51.2525 112.753 51.2525C115.831 51.2525 117.959 50.456 120.148 48.817V51.7886C118.219 53.2284 115.433 53.8717 112.753 53.8717C106.507 53.8717 101.745 49.5982 101.745 42.5523C101.745 36.0577 106.216 31.2328 112.019 31.2328C117.469 31.2328 121.097 34.5107 121.097 40.6682V42.7054L104.716 42.7208ZM118.112 40.2394C117.913 35.7208 115.479 33.8827 111.865 33.8827C108.497 33.8827 105.757 36.165 104.915 40.2394H118.112Z" fill="#58595B"/>
<path d="M144.997 53.0905C142.67 53.6419 140.235 53.887 137.954 53.887C130.467 53.887 125.4 49.8126 125.4 42.5676C125.4 35.3225 130.85 31.2481 137.311 31.2481C138.949 31.2481 140.94 31.6004 142.027 32.2437V19.6376H144.997V53.0905ZM142.027 34.9242C140.94 34.3269 139.301 33.9286 137.311 33.9286C132.305 33.9286 128.431 37.0074 128.431 42.5676C128.431 48.1277 132.259 51.2525 137.954 51.2525C139.347 51.2525 140.741 51.2065 142.027 51.0074V34.9242Z" fill="#58595B"/>
<path d="M170.396 53.0905C168.069 53.6419 165.635 53.887 163.354 53.887C155.867 53.887 150.799 49.8126 150.799 42.5676C150.799 35.3225 156.25 31.2481 162.711 31.2481C164.349 31.2481 166.339 31.6004 167.426 32.2437V19.6376H170.396V53.0905ZM167.426 34.9242C166.339 34.3269 164.701 33.9286 162.711 33.9286C157.704 33.9286 153.831 37.0074 153.831 42.5676C153.831 48.1277 157.643 51.2525 163.354 51.2525C164.747 51.2525 166.14 51.2065 167.426 51.0074V34.9242Z" fill="#58595B"/>
<path d="M178.082 19.6376H181.052V32.3356C182.002 31.7842 184.13 31.2481 186.212 31.2481C192.703 31.2481 197.572 35.0161 197.572 42.4603C197.572 49.4603 192.612 53.8717 185.125 53.8717C182.844 53.8717 180.317 53.4735 178.082 52.7842V19.6376ZM181.068 50.7623C182.308 51.1146 183.747 51.2525 185.14 51.2525C190.897 51.2525 194.571 47.9746 194.571 42.4603C194.571 36.9461 190.759 33.9286 186.243 33.9286C184.007 33.9286 182.323 34.3269 181.083 34.9242V50.7623H181.068Z" fill="#58595B"/>
<path d="M214.597 38.2481C214.597 35.4757 212.806 34.0359 210.035 34.0359C207.554 34.0359 205.671 34.7251 203.681 35.7667V32.933C205.518 31.9374 207.845 31.2481 210.371 31.2481C214.735 31.2481 217.567 33.1781 217.567 38.049V52.9833C215.577 53.5348 213.25 53.7798 211.413 53.7798C205.564 53.7798 201.645 51.9418 201.645 47.3772C201.645 43.1037 205.564 40.8827 212.163 40.8827H214.597V38.2481ZM214.597 43.3181H212.362C207.891 43.3181 204.615 44.5129 204.615 47.3925C204.615 50.2722 207.585 51.3138 211.566 51.3138C212.454 51.3138 213.556 51.2219 214.597 51.0227V43.3181Z" fill="#58595B"/>
<path d="M223.37 48.7711C225.207 50.41 227.09 51.3597 229.479 51.3597C232.204 51.3597 233.949 50.3181 233.949 47.8827C233.949 45.2941 232.066 44.6048 228.637 43.4713C224.824 42.1847 223.186 40.5917 223.186 37.1146C223.186 33.3006 226.064 31.2634 229.984 31.2634C232.112 31.2634 234.194 31.7076 235.894 32.9024V36.1343C234.21 34.7405 232.479 33.8061 229.984 33.8061C227.488 33.8061 226.064 35.0927 226.064 37.1299C226.064 39.1671 227.259 40.1628 230.581 41.2043C234.347 42.3378 236.873 43.793 236.873 47.6989C236.873 51.9724 233.551 53.9024 229.479 53.9024C227.044 53.9024 224.717 53.2131 223.37 52.1715V48.7711Z" fill="#58595B"/>
<path d="M243.916 42.7208V42.8127C243.916 48.1278 247.728 51.2525 251.954 51.2525C255.031 51.2525 257.16 50.456 259.349 48.817V51.7886C257.42 53.2284 254.633 53.8717 251.954 53.8717C245.707 53.8717 240.946 49.5982 240.946 42.5523C240.946 36.0577 245.417 31.2328 251.219 31.2328C256.67 31.2328 260.298 34.5107 260.298 40.6682V42.7054L243.916 42.7208ZM257.313 40.2394C257.114 35.7208 254.679 33.8827 251.066 33.8827C247.698 33.8827 244.957 36.165 244.115 40.2394H257.313Z" fill="#58595B"/>
</g>
<path d="M192.802 73.3203V60.3453H198.007C200.76 60.3453 202.024 61.5712 202.024 63.6268C202.024 64.9469 201.269 66.0407 199.817 66.4556V66.5122C201.533 66.7762 202.533 67.9832 202.533 69.5297C202.533 71.7173 201.1 73.3203 198.327 73.3203H192.802ZM198.327 67.1534H194.141V72.1511H198.327C200.27 72.1511 201.194 71.0761 201.194 69.5485C201.194 68.1907 200.27 67.1534 198.327 67.1534ZM198.007 61.5146H194.141V65.9842H198.045C199.761 65.9842 200.685 64.9469 200.685 63.6079C200.685 62.3255 199.93 61.5146 198.007 61.5146ZM203.745 76.5075H204.254C205.405 76.5075 206.102 75.7908 206.555 74.5273L206.895 73.6032L203.274 64.1171H204.669L207.498 71.9247H207.555L210.365 64.1171H211.647L207.611 74.8856C207.102 76.2435 206.253 77.6013 204.481 77.6013H203.745V76.5075Z" fill="#54565B"/>
<g clip-path="url(#clip2_94_30)">
<path d="M248.643 71.4285C248.105 71.4285 247.798 70.9865 247.798 70.4097V66.222H249.39L248.56 64.0903H247.793V60.8613H245.339V71.0624C245.339 72.7154 246.261 73.5982 247.971 73.5982C248.986 73.5982 249.637 73.3313 250.003 73.0056L249.334 71.2693C249.118 71.3746 248.882 71.4297 248.643 71.4285Z" fill="#54565B"/>
<path d="M228.31 63.8223C225.256 63.8223 223.412 66.0496 223.412 68.6822C223.412 71.3148 225.256 73.5605 228.31 73.5605C231.363 73.5605 233.227 71.3319 233.227 68.6822C233.227 66.0324 231.383 63.8223 228.31 63.8223ZM228.31 71.3895C226.792 71.3919 225.945 70.1417 225.945 68.6822C225.945 67.2226 226.79 65.9883 228.307 65.9883C229.824 65.9883 230.69 67.2373 230.69 68.6822C230.692 70.1417 229.828 71.3919 228.31 71.3919V71.3895Z" fill="#54565B"/>
<path d="M219.591 65.992C220.436 65.992 221.108 66.3385 221.55 66.9912L221.611 66.9336C221.792 66.1867 222.106 65.4765 222.534 64.8386C221.862 64.268 220.87 63.8223 219.473 63.8223C216.613 63.8223 214.558 65.839 214.558 68.6822C214.558 71.5254 216.613 73.5605 219.476 73.5605C220.87 73.5605 221.861 73.1148 222.537 72.5368C222.112 71.9025 221.801 71.1972 221.62 70.4552L221.554 70.3952C221.107 71.0332 220.371 71.4066 219.591 71.3919C218.109 71.3919 217.074 70.2899 217.074 68.6822C217.074 67.0745 218.109 65.992 219.591 65.992Z" fill="#54565B"/>
<path d="M237.025 65.5319C237.025 64.7152 236.362 64.0527 235.545 64.0527H234.585V73.3305H237.025V67.4139C237.429 66.8188 238.504 66.3572 239.311 66.3572C239.537 66.3584 239.763 66.3841 239.983 66.4343V64.0527C238.831 64.0527 237.677 64.7054 237.025 65.5319Z" fill="#54565B"/>
<path d="M243.655 64.0527H241.216V73.3305H243.655V64.0527Z" fill="#54565B"/>
<path d="M257.129 64.0527L254.68 70.431L252.289 64.0527H249.677L253.485 73.5448L252.317 76.5852H253.483C254.271 76.5852 254.979 76.1039 255.271 75.3717L259.761 64.0527H257.129Z" fill="#54565B"/>
<path d="M243.655 60.8613H241.216V62.9405H243.655V60.8613Z" fill="#54565B"/>
<path d="M260.966 65.2278C260.887 65.2278 260.808 65.2131 260.736 65.1812C260.666 65.1531 260.601 65.1114 260.547 65.0588C260.495 65.0049 260.453 64.94 260.425 64.8702C260.394 64.7967 260.378 64.7184 260.378 64.6388C260.378 64.5592 260.394 64.4808 260.425 64.4086C260.485 64.2666 260.599 64.1527 260.741 64.0927C260.812 64.0621 260.889 64.0461 260.966 64.0449C261.046 64.0449 261.124 64.0608 261.198 64.0915C261.267 64.1196 261.331 64.1612 261.385 64.2139C261.496 64.3253 261.559 64.4759 261.559 64.6327C261.559 64.7123 261.544 64.7906 261.512 64.8641C261.452 65.0061 261.34 65.1188 261.198 65.1788C261.124 65.2106 261.046 65.2278 260.966 65.2278ZM260.966 64.1551C260.702 64.1551 260.486 64.3706 260.486 64.6351C260.486 64.8996 260.702 65.1151 260.966 65.1151C261.231 65.1151 261.446 64.8996 261.446 64.6351C261.446 64.3706 261.231 64.1563 260.966 64.1551Z" fill="#54565B"/>
<path d="M261.168 64.8854C261.15 64.8254 261.126 64.769 261.095 64.7139C261.203 64.6478 261.236 64.507 261.17 64.3992C261.126 64.3282 261.048 64.2866 260.965 64.2903H260.72V64.9784H260.857V64.7507H260.954C260.996 64.8045 261.026 64.8658 261.044 64.9307C261.048 64.9478 261.055 64.9637 261.061 64.9796H261.21C261.194 64.949 261.179 64.9184 261.168 64.8854ZM260.965 64.6135H260.843V64.4299H260.965C261.015 64.4299 261.057 64.4715 261.057 64.5217C261.057 64.5719 261.015 64.6135 260.965 64.6135Z" fill="#54565B"/>
</g>
</g>
<defs>
<clipPath id="clip0_94_30">
<rect width="262" height="88" fill="white" transform="translate(0 0.320312)"/>
</clipPath>
<clipPath id="clip1_94_30">
<rect width="266" height="42" fill="white" transform="translate(5 18.3203)"/>
</clipPath>
<clipPath id="clip2_94_30">
<rect width="61" height="15" fill="white" transform="translate(203.918 61.2598)"/>
</clipPath>
</defs>
</svg>
